#N canvas 573 269 704 462 10;
#X obj 455 138 oscparse;
#X obj 455 161 list trim;
#X obj 455 115 netreceive -b -u 7770;
#X obj 127 397 netsend -u -b;
#X msg 207 329 connect localhost 9001;
#X msg 207 357 disconnect;
#X obj 127 184 snapshot~;
#X obj 127 139 metro 10;
#X obj 127 103 tgl 30 0 empty empty empty 17 7 0 10 -262144 -1 -1 1
1;
#X obj 69 139 osc~ 0.1;
#X msg 544 360 \; pd dsp 1;
#X obj 544 337 loadbang;
#X msg 544 396 \; pd dsp 0;
#X obj 127 233 oscformat OscPipoApp InputData;
#X obj 127 279 list prepend send;
#X obj 127 302 list trim;
#X obj 455 184 route OscPipoApp;
#X obj 455 207 route OutputData;
#X obj 82 235 vsl 30 128 -1 1 0 0 empty empty empty 0 -9 0 10 -262144
-1 -1 105 0;
#X obj 227 183 oscformat OscPipoApp PipoParam;
#X obj 227 101 nbx 5 30 -1e+37 1e+37 0 0 empty empty empty 0 -8 0 20
-262144 -1 -1 1 256;
#X obj 455 232 vsl 30 128 -1 1 0 0 empty empty empty 0 -9 0 10 -262144
-1 -1 77 0;
#X text 46 24 PiPoGain for JucePipoOscApp tester;
#X obj 227 161 list;
#X msg 227 138 gain.factor \$1;
#X obj 227 59 loadbang;
#X msg 227 80 1;
#X obj 207 302 loadbang;
#X connect 0 0 1 0;
#X connect 1 0 16 0;
#X connect 2 0 0 0;
#X connect 4 0 3 0;
#X connect 5 0 3 0;
#X connect 6 0 13 0;
#X connect 6 0 18 0;
#X connect 7 0 6 0;
#X connect 8 0 7 0;
#X connect 9 0 6 0;
#X connect 11 0 10 0;
#X connect 13 0 14 0;
#X connect 14 0 15 0;
#X connect 15 0 3 0;
#X connect 16 0 17 0;
#X connect 17 0 21 0;
#X connect 19 0 14 0;
#X connect 20 0 24 0;
#X connect 23 0 19 0;
#X connect 24 0 23 0;
#X connect 25 0 26 0;
#X connect 26 0 20 0;
#X connect 27 0 4 0;
